<?xml version="1.0" standalone="no"?>
<!DOCTYPE svg PUBLIC "-//W3C//DTD SVG 20010904//EN"
 "http://www.w3.org/TR/2001/REC-SVG-20010904/DTD/svg10.dtd">
<svg version="1.0" xmlns="http://www.w3.org/2000/svg"
 width="122.000000pt" height="91.000000pt" viewBox="0 0 122.000000 91.000000"
 preserveAspectRatio="xMidYMid meet">

<g transform="translate(0.000000,91.000000) scale(0.100000,-0.100000)"
fill="#065f46" stroke="none">
<path d="M318 577 c-93 -166 -168 -308 -168 -315 0 -9 29 -12 103 -12 l104 0
18 39 c21 48 14 61 -32 61 -24 0 -34 4 -30 13 20 47 176 322 183 321 5 0 47
-69 92 -152 l84 -152 43 0 c24 0 47 5 50 10 8 12 -256 490 -270 490 -5 0 -85
-136 -177 -303z m299 40 c86 -155 109 -203 97 -205 -23 -5 -24 -3 -109 153
-99 181 -105 189 -117 177 -16 -16 -218 -395 -218 -409 0 -9 14 -13 40 -13 41
0 46 -5 31 -28 -5 -9 -29 -12 -79 -10 l-72 3 151 273 c84 150 154 270 158 267
3 -3 56 -97 118 -208z"/>
<path d="M711 791 c-44 -88 -44 -89 -29 -127 21 -51 40 -53 62 -8 9 21 21 33
25 28 9 -9 181 -324 181 -331 0 -2 -78 -3 -172 -3 -95 0 -179 -4 -186 -9 -8
-5 -12 -23 -10 -47 l3 -39 263 -3 c206 -2 262 0 262 10 0 19 -333 611 -345
615 -6 2 -30 -37 -54 -86z m197 -216 c76 -138 144 -260 151 -272 l12 -23 -231
0 c-215 0 -231 1 -228 18 3 15 21 17 191 20 140 2 187 6 187 15 0 18 -214 409
-225 411 -5 0 -19 -16 -31 -38 -37 -66 -40 -20 -3 55 18 38 34 67 35 66 2 -2
66 -115 142 -252z"/>
<path d="M499 418 c-29 -51 -90 -155 -137 -230 -46 -76 -80 -142 -77 -148 8
-13 681 -14 690 0 3 5 -14 44 -38 87 -44 76 -45 78 -87 81 -68 5 -76 -2 -51
-43 l20 -35 -190 0 -191 0 14 23 c8 12 47 80 88 150 l73 128 -18 39 c-10 22
-24 40 -31 40 -7 0 -36 -42 -65 -92z m69 -2 c-6 -12 -46 -82 -89 -157 -44 -74
-79 -141 -79 -147 0 -9 60 -12 230 -12 244 0 249 1 215 46 -20 27 -19 34 8 34
16 0 29 -13 50 -53 15 -29 27 -56 27 -60 0 -4 -135 -7 -300 -7 -165 0 -300 3
-300 6 0 3 33 61 73 128 40 66 88 148 107 181 45 82 51 89 61 74 4 -7 3 -22
-3 -33z"/>
</g>
</svg>
