<?xml version="1.0" encoding="utf-8"?>
<svg viewBox="0 0 500 500" xmlns="http://www.w3.org/2000/svg">
  <defs>
    <linearGradient gradientUnits="userSpaceOnUse" x1="248.92" y1="63.277" x2="248.92" y2="441.445" id="gradient-1" spreadMethod="pad">
      <stop offset="0" style="stop-color: rgba(0, 0, 0, 1)"/>
      <stop offset="1" style="stop-color: rgba(0, 0, 0, 1)"/>
    </linearGradient>
  </defs>
  <ellipse style="paint-order: fill; fill-rule: evenodd; fill: url(#gradient-1); stroke-opacity: 0.8; stroke: rgba(0, 0, 0, 0);" cx="248.92" cy="252.361" rx="189.084" ry="189.084" transform="matrix(0.9999999999999999, 0, 0, 0.9999999999999999, -3.552713678800501e-15, 3.552713678800501e-15)"/>
  <g transform="matrix(0.21441100537776944, 0, 0, -0.24989001452922818, 113.34501647949219, 357.343017578125)" fill="#065f46" stroke="none" style="">
    <path d="M318 577 c-93 -166 -168 -308 -168 -315 0 -9 29 -12 103 -12 l104 0 18 39 c21 48 14 61 -32 61 -24 0 -34 4 -30 13 20 47 176 322 183 321 5 0 47 -69 92 -152 l84 -152 43 0 c24 0 47 5 50 10 8 12 -256 490 -270 490 -5 0 -85 -136 -177 -303z m299 40 c86 -155 109 -203 97 -205 -23 -5 -24 -3 -109 153 -99 181 -105 189 -117 177 -16 -16 -218 -395 -218 -409 0 -9 14 -13 40 -13 41 0 46 -5 31 -28 -5 -9 -29 -12 -79 -10 l-72 3 151 273 c84 150 154 270 158 267 3 -3 56 -97 118 -208z" style="stroke-width: 0px; stroke-miterlimit: 1; stroke-linejoin: round;"/>
    <path d="M711 791 c-44 -88 -44 -89 -29 -127 21 -51 40 -53 62 -8 9 21 21 33 25 28 9 -9 181 -324 181 -331 0 -2 -78 -3 -172 -3 -95 0 -179 -4 -186 -9 -8 -5 -12 -23 -10 -47 l3 -39 263 -3 c206 -2 262 0 262 10 0 19 -333 611 -345 615 -6 2 -30 -37 -54 -86z m197 -216 c76 -138 144 -260 151 -272 l12 -23 -231 0 c-215 0 -231 1 -228 18 3 15 21 17 191 20 140 2 187 6 187 15 0 18 -214 409 -225 411 -5 0 -19 -16 -31 -38 -37 -66 -40 -20 -3 55 18 38 34 67 35 66 2 -2 66 -115 142 -252z" style="stroke-width: 0px; stroke-miterlimit: 1; stroke-linejoin: round;"/>
    <path d="M499 418 c-29 -51 -90 -155 -137 -230 -46 -76 -80 -142 -77 -148 8 -13 681 -14 690 0 3 5 -14 44 -38 87 -44 76 -45 78 -87 81 -68 5 -76 -2 -51 -43 l20 -35 -190 0 -191 0 14 23 c8 12 47 80 88 150 l73 128 -18 39 c-10 22 -24 40 -31 40 -7 0 -36 -42 -65 -92z m69 -2 c-6 -12 -46 -82 -89 -157 -44 -74 -79 -141 -79 -147 0 -9 60 -12 230 -12 244 0 249 1 215 46 -20 27 -19 34 8 34 16 0 29 -13 50 -53 15 -29 27 -56 27 -60 0 -4 -135 -7 -300 -7 -165 0 -300 3 -300 6 0 3 33 61 73 128 40 66 88 148 107 181 45 82 51 89 61 74 4 -7 3 -22 -3 -33z" style="stroke-width: 0px; stroke-miterlimit: 1; stroke-linejoin: round;"/>
  </g>
  <path fill="rgb(254,0,0)" stroke="rgb(254,0,0)" stroke-width="0" opacity="0.9568627450980393" d="M 205.839 207.384 C 205.261 211.55 201.867 218.286 199.869 220.745 C 198.64 222.258 197.58 221.06 196.173 223.02 C 192.931 227.536 187.963 246.729 183.665 255.712 C 180.15 263.057 172.482 271.839 172.862 273.906 C 173.039 274.87 174.603 274.235 175.989 274.191 C 178.063 274.124 182.27 272.633 184.518 273.053 C 186.323 273.391 187.791 274.275 188.782 275.612 C 189.883 277.098 190.718 280.047 190.487 281.866 C 190.281 283.502 190.084 284.874 187.929 286.131 C 183.467 288.732 163.051 292.389 157.795 291.816 C 155.256 291.539 154.521 290.635 153.531 289.258 C 152.393 287.675 151.387 284.924 151.825 282.435 C 152.367 279.353 156.76 275.517 158.079 272.201 C 159.239 269.284 158.368 266.875 159.785 263.672 C 161.679 259.389 166.845 255.127 170.019 248.889 C 173.991 241.085 177.641 225.65 180.822 219.324 C 182.782 215.425 184.58 213.182 186.223 211.648 C 187.338 210.607 188.391 211.255 189.35 209.943 C 190.886 207.842 191.73 200.025 193.206 196.987 C 193.221 196.518 193.262 196.007 193.33 195.444 C 194.051 189.53 200.364 172.161 203.565 166.447 C 205.437 163.104 207.408 161.975 208.966 160.477 C 210.148 159.341 211.096 159.181 212.093 157.919 C 213.404 156.258 214.461 152.102 215.789 150.812 C 216.692 149.933 217.395 149.654 218.632 149.674 C 220.406 149.704 224.267 150.554 225.739 152.233 C 227.234 153.939 226.514 158.459 227.444 159.909 C 228.049 160.851 229.11 160.434 229.719 161.33 C 230.6 162.626 230.194 166.163 231.424 167.869 C 232.656 169.576 234.625 168.127 237.11 171.564 C 243.977 181.064 270.491 240.844 271.224 250.595 C 271.458 253.712 270.002 253.869 268.665 254.859 C 267.179 255.961 264.496 257.004 262.411 256.565 C 260.042 256.066 257.951 254.726 255.304 251.164 C 250.388 244.546 240.417 220.964 237.679 213.07 C 236.22 208.863 237.32 207.557 235.973 204.541 C 234.313 200.824 229.234 196.644 227.444 192.601 C 225.831 188.957 227.198 183.928 225.17 181.514 C 223.262 179.243 218.823 176.582 216.073 178.103 C 212.07 180.316 209.375 198.157 205.932 202.682 C 206.082 204.245 206.047 205.888 205.839 207.384 Z M 231.709 241.214 C 233.483 241.243 237.347 242.117 238.816 243.772 C 240.287 245.431 241 247.765 240.521 251.164 C 239.725 256.819 231.027 273.287 229.434 275.896 C 228.976 276.648 229.015 276.256 228.581 276.749 C 227.692 277.762 225.532 279.548 224.033 282.435 C 221.718 286.893 219.973 297.736 217.21 302.903 C 215.046 306.952 211.835 308.305 209.819 312 C 207.541 316.176 202.119 324.29 204.702 327.067 C 208.218 330.849 232.743 325.288 239.1 325.93 C 242.247 326.248 241.438 327.217 244.786 327.636 C 252.251 328.57 284.141 329.909 288.85 328.204 C 290.386 327.648 289.742 326.462 290.271 325.93 C 290.707 325.492 291.551 325.775 291.692 325.077 C 291.985 323.631 288.095 318.07 288.281 315.412 C 288.434 313.232 289.904 311.095 291.408 310.01 C 292.868 308.957 295.154 308.387 297.094 308.873 C 299.399 309.451 301.977 312.021 304.201 314.275 C 306.651 316.757 309.059 319.608 311.024 323.372 C 313.355 327.838 316.872 336.325 316.709 339.86 C 316.611 342 315.431 343.05 314.151 344.124 C 312.76 345.292 312.452 345.802 308.465 346.399 C 296.942 348.124 240.797 348.759 221.474 347.536 C 209.784 346.796 203.115 343.611 197.026 343.556 C 192.822 343.518 189.903 345.721 187.36 345.261 C 185.306 344.89 183.523 343.6 182.528 342.134 C 181.529 340.665 180.839 338.666 181.39 336.449 C 182.173 333.305 187.218 329.464 189.35 325.077 C 191.677 320.291 191.943 313.764 194.467 308.589 C 197.033 303.329 202.067 299.281 204.702 293.806 C 207.429 288.138 207.623 280.319 210.387 275.043 C 212.894 270.258 218.085 267.222 220.053 263.104 C 221.812 259.423 220.85 255.199 222.327 251.732 C 223.796 248.285 227.047 243.915 228.866 242.351 C 229.939 241.427 230.472 241.193 231.709 241.214 Z M 274.92 149.106 C 276.974 149.218 281.121 149.838 283.733 152.802 C 287.71 157.314 289.91 171.895 293.398 178.387 C 296.083 183.384 298.671 183.943 301.927 189.758 C 307.263 199.291 315.73 223.723 321.258 234.675 C 325.115 242.318 328.629 245.343 331.492 251.732 C 334.602 258.672 338.645 272.566 338.884 275.043 C 338.947 275.704 338.383 275.58 338.599 275.896 C 339.076 276.594 343.287 276.938 344.569 278.455 C 345.892 280.021 346.534 283.346 346.275 285.278 C 346.049 286.959 345.232 288.549 343.716 289.542 C 341.773 290.815 338.404 291.042 334.619 291.248 C 329.534 291.524 321.157 290.175 315.288 290.11 C 310.1 290.054 306.307 290.655 301.074 290.679 C 295.088 290.706 287.972 290.117 281.174 290.11 C 274.148 290.104 265.472 290.734 259.568 290.679 C 255 290.636 251.037 290.97 248.197 290.11 C 246.035 289.456 244.355 288.397 243.364 286.983 C 242.41 285.622 241.954 283.559 242.227 281.866 C 242.52 280.051 243.207 277.646 245.354 276.465 C 248.567 274.698 256.902 275.412 262.411 275.328 C 267.69 275.247 274.051 276.466 277.763 275.896 C 280.331 275.502 280.962 274.061 283.448 273.622 C 286.874 273.017 291.76 273.419 297.094 273.622 C 303.74 273.875 317.662 277.21 320.689 275.328 C 322.37 274.283 321.982 273.221 321.258 269.926 C 319.314 261.081 300.63 218.408 295.672 211.08 C 293.878 208.426 292.855 209.687 291.692 207.953 C 290.033 205.477 289.193 198.445 287.712 196.297 C 286.821 195.003 285.916 195.708 284.87 194.307 C 282.863 191.62 279.803 178.248 277.763 178.103 C 276.001 177.977 275.391 187.406 273.214 189.474 C 271.526 191.078 268.842 191.462 266.96 191.18 C 265.165 190.911 263.136 189.653 262.127 188.053 C 261.006 186.276 260.857 183.271 260.99 180.661 C 261.135 177.804 261.911 174.124 263.264 171.564 C 264.538 169.156 267.634 167.837 268.665 165.594 C 269.65 163.455 269.562 160.262 269.518 158.487 C 269.488 157.251 268.734 156.752 268.95 155.644 C 269.243 154.139 270.91 151.303 272.077 150.243 C 272.954 149.445 273.617 149.035 274.92 149.106 Z" style="fill: rgb(6, 95, 70); fill-opacity: 1; fill-rule: nonzero; stroke: none; stroke-dasharray: none; stroke-dashoffset: 0px; stroke-linecap: butt; stroke-linejoin: round; stroke-miterlimit: 1; stroke-opacity: 1; stroke-width: 0px; paint-order: normal; vector-effect: none; opacity: 1; mix-blend-mode: normal; isolation: auto;" transform="matrix(0.9999999999999999, 0, 0, 0.9999999999999999, -3.552713678800501e-15, 3.552713678800501e-15)"/>
</svg>